<svg width="222" height="232" viewBox="0 0 222 232" fill="none" xmlns="http://www.w3.org/2000/svg">
<path fill-rule="evenodd" clip-rule="evenodd" d="M187.212 157.998C185.672 157.998 184.71 159.665 185.48 160.998L201.585 188.894C202.476 190.437 201.056 192.287 199.335 191.826L150.491 178.737C148.357 178.165 146.163 179.432 145.592 181.566L132.504 230.411C132.042 232.132 129.731 232.436 128.84 230.893L112.732 202.992C111.962 201.659 110.037 201.659 109.268 202.992L93.1595 230.893C92.2686 232.436 89.9568 232.132 89.4956 230.411L76.4075 181.566C75.8357 179.432 73.6423 178.165 71.5085 178.737L22.664 191.826C20.9429 192.287 19.5234 190.437 20.4143 188.894L36.5192 160.998C37.289 159.665 36.3267 157.998 34.7871 157.998H2.57893C0.79713 157.998 -0.095179 155.844 1.16476 154.584L36.9218 118.827C38.484 117.265 38.484 114.733 36.9218 113.171L1.16478 77.4133C-0.0951563 76.1533 0.7972 73.999 2.57902 73.9991L34.7837 73.9995C36.3233 73.9995 37.2856 72.3328 36.5158 70.9995L20.4143 43.11C19.5234 41.5669 20.9429 39.717 22.664 40.1781L71.5085 53.2665C73.6423 53.8383 75.8357 52.572 76.4075 50.4381L89.4956 1.59292C89.9568 -0.128187 92.2686 -0.432531 93.1595 1.11058L109.267 29.0111C110.037 30.3445 111.962 30.3445 112.732 29.0111L128.84 1.11058C129.73 -0.432532 132.042 -0.128189 132.503 1.59292L145.592 50.4381C146.163 52.572 148.357 53.8383 150.491 53.2665L199.335 40.1781C201.056 39.717 202.476 41.5669 201.585 43.11L185.483 70.9995C184.713 72.3328 185.676 73.9995 187.215 73.9995L219.421 73.9991C221.203 73.999 222.095 76.1533 220.835 77.4133L185.078 113.171C183.516 114.733 183.516 117.265 185.078 118.827L220.835 154.584C222.095 155.844 221.203 157.998 219.421 157.998H187.212ZM174.919 81.3306C176.366 79.8837 174.963 77.4549 172.987 77.9845L129.491 89.6396C127.357 90.2114 125.164 88.9451 124.592 86.8112L112.931 43.293C112.402 41.3166 109.597 41.3166 109.068 43.293L97.4069 86.8112C96.8351 88.9451 94.6418 90.2114 92.5079 89.6396L49.0136 77.9849C47.0371 77.4553 45.6348 79.8841 47.0817 81.331L78.9216 113.171C80.4837 114.733 80.4837 117.266 78.9216 118.828L47.0742 150.675C45.6273 152.122 47.0296 154.55 49.0061 154.021L92.5079 142.364C94.6418 141.792 96.8351 143.059 97.4069 145.192L109.068 188.711C109.597 190.687 112.402 190.687 112.931 188.711L124.592 145.192C125.164 143.059 127.357 141.792 129.491 142.364L172.994 154.021C174.971 154.551 176.373 152.122 174.926 150.675L143.079 118.828C141.516 117.266 141.516 114.733 143.079 113.171L174.919 81.3306Z" fill="white"/>
<mask id="mask0_1_14" style="mask-type:alpha" maskUnits="userSpaceOnUse" x="0" y="0" width="222" height="232">
<path fill-rule="evenodd" clip-rule="evenodd" d="M187.212 157.998C185.672 157.998 184.71 159.665 185.48 160.998L201.585 188.894C202.476 190.437 201.056 192.287 199.335 191.826L150.491 178.737C148.357 178.165 146.163 179.432 145.592 181.566L132.504 230.411C132.042 232.132 129.731 232.436 128.84 230.893L112.732 202.992C111.962 201.659 110.037 201.659 109.268 202.992L93.1595 230.893C92.2686 232.436 89.9568 232.132 89.4956 230.411L76.4075 181.566C75.8357 179.432 73.6423 178.165 71.5085 178.737L22.664 191.826C20.9429 192.287 19.5234 190.437 20.4143 188.894L36.5192 160.998C37.289 159.665 36.3267 157.998 34.7871 157.998H2.57893C0.79713 157.998 -0.095179 155.844 1.16476 154.584L36.9218 118.827C38.484 117.265 38.484 114.733 36.9218 113.171L1.16478 77.4133C-0.0951563 76.1533 0.7972 73.999 2.57902 73.9991L34.7837 73.9995C36.3233 73.9995 37.2856 72.3328 36.5158 70.9995L20.4143 43.11C19.5234 41.5669 20.9429 39.717 22.664 40.1781L71.5085 53.2665C73.6423 53.8383 75.8357 52.572 76.4075 50.4381L89.4956 1.59292C89.9568 -0.128187 92.2686 -0.432531 93.1595 1.11058L109.267 29.0111C110.037 30.3445 111.962 30.3445 112.732 29.0111L128.84 1.11058C129.73 -0.432532 132.042 -0.128189 132.503 1.59292L145.592 50.4381C146.163 52.572 148.357 53.8383 150.491 53.2665L199.335 40.1781C201.056 39.717 202.476 41.5669 201.585 43.11L185.483 70.9995C184.713 72.3328 185.676 73.9995 187.215 73.9995L219.421 73.9991C221.203 73.999 222.095 76.1533 220.835 77.4133L185.078 113.171C183.516 114.733 183.516 117.265 185.078 118.827L220.835 154.584C222.095 155.844 221.203 157.998 219.421 157.998H187.212ZM174.919 81.3306C176.366 79.8837 174.963 77.4549 172.987 77.9845L129.491 89.6396C127.357 90.2114 125.164 88.9451 124.592 86.8112L112.931 43.293C112.402 41.3166 109.597 41.3166 109.068 43.293L97.4069 86.8112C96.8351 88.9451 94.6418 90.2114 92.5079 89.6396L49.0136 77.9849C47.0371 77.4553 45.6348 79.8841 47.0817 81.331L78.9216 113.171C80.4837 114.733 80.4837 117.266 78.9216 118.828L47.0742 150.675C45.6273 152.122 47.0296 154.55 49.0061 154.021L92.5079 142.364C94.6418 141.792 96.8351 143.059 97.4069 145.192L109.068 188.711C109.597 190.687 112.402 190.687 112.931 188.711L124.592 145.192C125.164 143.059 127.357 141.792 129.491 142.364L172.994 154.021C174.971 154.551 176.373 152.122 174.926 150.675L143.079 118.828C141.516 117.266 141.516 114.733 143.079 113.171L174.919 81.3306Z" fill="url(#paint0_radial_1_14)"/>
<path fill-rule="evenodd" clip-rule="evenodd" d="M187.212 157.998C185.672 157.998 184.71 159.665 185.48 160.998L201.585 188.894C202.476 190.437 201.056 192.287 199.335 191.826L150.491 178.737C148.357 178.165 146.163 179.432 145.592 181.566L132.504 230.411C132.042 232.132 129.731 232.436 128.84 230.893L112.732 202.992C111.962 201.659 110.037 201.659 109.268 202.992L93.1595 230.893C92.2686 232.436 89.9568 232.132 89.4956 230.411L76.4075 181.566C75.8357 179.432 73.6423 178.165 71.5085 178.737L22.664 191.826C20.9429 192.287 19.5234 190.437 20.4143 188.894L36.5192 160.998C37.289 159.665 36.3267 157.998 34.7871 157.998H2.57893C0.79713 157.998 -0.095179 155.844 1.16476 154.584L36.9218 118.827C38.484 117.265 38.484 114.733 36.9218 113.171L1.16478 77.4133C-0.0951563 76.1533 0.7972 73.999 2.57902 73.9991L34.7837 73.9995C36.3233 73.9995 37.2856 72.3328 36.5158 70.9995L20.4143 43.11C19.5234 41.5669 20.9429 39.717 22.664 40.1781L71.5085 53.2665C73.6423 53.8383 75.8357 52.572 76.4075 50.4381L89.4956 1.59292C89.9568 -0.128187 92.2686 -0.432531 93.1595 1.11058L109.267 29.0111C110.037 30.3445 111.962 30.3445 112.732 29.0111L128.84 1.11058C129.73 -0.432532 132.042 -0.128189 132.503 1.59292L145.592 50.4381C146.163 52.572 148.357 53.8383 150.491 53.2665L199.335 40.1781C201.056 39.717 202.476 41.5669 201.585 43.11L185.483 70.9995C184.713 72.3328 185.676 73.9995 187.215 73.9995L219.421 73.9991C221.203 73.999 222.095 76.1533 220.835 77.4133L185.078 113.171C183.516 114.733 183.516 117.265 185.078 118.827L220.835 154.584C222.095 155.844 221.203 157.998 219.421 157.998H187.212ZM174.919 81.3306C176.366 79.8837 174.963 77.4549 172.987 77.9845L129.491 89.6396C127.357 90.2114 125.164 88.9451 124.592 86.8112L112.931 43.293C112.402 41.3166 109.597 41.3166 109.068 43.293L97.4069 86.8112C96.8351 88.9451 94.6418 90.2114 92.5079 89.6396L49.0136 77.9849C47.0371 77.4553 45.6348 79.8841 47.0817 81.331L78.9216 113.171C80.4837 114.733 80.4837 117.266 78.9216 118.828L47.0742 150.675C45.6273 152.122 47.0296 154.55 49.0061 154.021L92.5079 142.364C94.6418 141.792 96.8351 143.059 97.4069 145.192L109.068 188.711C109.597 190.687 112.402 190.687 112.931 188.711L124.592 145.192C125.164 143.059 127.357 141.792 129.491 142.364L172.994 154.021C174.971 154.551 176.373 152.122 174.926 150.675L143.079 118.828C141.516 117.266 141.516 114.733 143.079 113.171L174.919 81.3306Z" fill="url(#paint1_radial_1_14)"/>
</mask>
<g mask="url(#mask0_1_14)">
<g filter="url(#filter0_f_1_14)">
<path d="M198.78 -26.5815L111 117.997L154.89 190.286L198.78 262.575L276.233 117.997L198.78 -26.5815Z" fill="url(#paint2_linear_1_14)"/>
</g>
</g>
<defs>
<filter id="filter0_f_1_14" x="90.346" y="-47.2355" width="206.541" height="330.465" filterUnits="userSpaceOnUse" color-interpolation-filters="sRGB">
<feFlood flood-opacity="0" result="BackgroundImageFix"/>
<feBlend mode="normal" in="SourceGraphic" in2="BackgroundImageFix" result="shape"/>
<feGaussianBlur stdDeviation="10.327" result="effect1_foregroundBlur_1_14"/>
</filter>
<radialGradient id="paint0_radial_1_14" cx="0" cy="0" r="1" gradientUnits="userSpaceOnUse" gradientTransform="translate(149.342 182.032) rotate(59.4351) scale(161.356 156.629)">
<stop offset="0.455526" stop-color="white"/>
<stop offset="0.762774" stop-color="#FF8800"/>
<stop offset="0.895833" stop-color="#FF3D00"/>
<stop offset="0.916667" stop-color="white"/>
</radialGradient>
<radialGradient id="paint1_radial_1_14" cx="0" cy="0" r="1" gradientUnits="userSpaceOnUse" gradientTransform="translate(111 116.002) rotate(90) scale(115.892 110.425)">
<stop offset="0.03125" stop-color="white"/>
<stop offset="0.500802" stop-color="white"/>
<stop offset="0.5784" stop-color="white"/>
<stop offset="0.787671" stop-color="white" stop-opacity="0"/>
<stop offset="1" stop-color="white" stop-opacity="0"/>
</radialGradient>
<linearGradient id="paint2_linear_1_14" x1="138.539" y1="66.3617" x2="209.107" y2="195.449" gradientUnits="userSpaceOnUse">
<stop stop-color="white"/>
<stop offset="0.720129" stop-color="#FF8800"/>
<stop offset="1" stop-color="#FF4400"/>
</linearGradient>
</defs>
</svg>
