<svg width="232" height="232" viewBox="0 0 232 232" fill="none" xmlns="http://www.w3.org/2000/svg">
<path d="M230.85 113.23L193.6 75.9799C192.87 75.2399 191.87 74.8299 190.83 74.8299H162.56C159.13 74.8299 157.17 72.8699 157.17 69.4399V41.1599C157.17 40.1199 156.76 39.1199 156.02 38.3899L118.77 1.14994C117.24 -0.380059 114.76 -0.380059 113.23 1.14994L75.9799 38.3999C75.2399 39.1399 74.8299 40.1299 74.8299 41.1699V69.4399C74.8299 72.8699 72.8699 74.8299 69.4399 74.8299H41.1699C40.1299 74.8299 39.1299 75.2399 38.3999 75.9799L1.14994 113.23C-0.380059 114.76 -0.380059 117.24 1.14994 118.77L38.3999 156.02C39.1399 156.75 40.1299 157.17 41.1699 157.17H69.4599C72.8799 157.17 74.8399 159.13 74.8399 162.56V190.83C74.8399 191.87 75.2499 192.87 75.9899 193.6L113.24 230.85C114.77 232.38 117.25 232.38 118.78 230.85L156.03 193.6C156.76 192.87 157.18 191.87 157.18 190.83V162.54C157.18 159.12 159.14 157.16 162.57 157.16H190.84C191.88 157.16 192.88 156.75 193.61 156.01L230.86 118.76C232.39 117.23 232.39 114.75 230.86 113.21L230.85 113.23ZM189.68 118.77L151.28 157.16L118.76 189.68C117.23 191.21 114.75 191.21 113.22 189.68L74.8199 151.28L42.2999 118.77C40.7699 117.24 40.7699 114.76 42.2999 113.22L80.6999 74.8199L113.22 42.2999C114.75 40.7699 117.23 40.7699 118.76 42.2999L157.16 80.6999L189.67 113.22C191.2 114.75 191.2 117.23 189.67 118.77H189.68Z" fill="white"/>
</svg>
