<svg width="42" height="14" viewBox="0 0 42 14" fill="none" xmlns="http://www.w3.org/2000/svg">
<path d="M4.12536 11.1639C3.57912 11.1639 3.0917 11.1092 2.66311 11C2.24293 10.8823 1.88577 10.7143 1.59164 10.4958C1.30592 10.2689 1.08742 9.99156 0.936155 9.66381C0.793292 9.32766 0.721861 8.94109 0.721861 8.5041L1.9446 8.17636C1.92779 8.59654 2.00763 8.9453 2.1841 9.22262C2.36058 9.49994 2.6211 9.71003 2.96565 9.8529C3.3186 9.98735 3.72618 10.0546 4.18839 10.0546C4.62538 10.0546 4.99514 9.99996 5.29767 9.89071C5.60861 9.78146 5.83971 9.6344 5.99098 9.44952C6.15065 9.25623 6.23048 9.03774 6.23048 8.79403C6.23048 8.51671 6.13384 8.29821 5.94056 8.13854C5.75568 7.97047 5.50777 7.84021 5.19683 7.74777C4.88589 7.64692 4.53714 7.55448 4.15057 7.47045C3.7556 7.38641 3.36062 7.28977 2.96565 7.18052C2.57908 7.07127 2.22612 6.92841 1.90678 6.75193C1.59585 6.56705 1.34373 6.33175 1.15045 6.04602C0.965568 5.76029 0.873127 5.39894 0.873127 4.96194C0.873127 4.45772 0.999183 4.02493 1.25129 3.66357C1.5034 3.30221 1.86056 3.02069 2.32276 2.819C2.79337 2.61731 3.35222 2.51647 3.9993 2.51647C4.63798 2.51647 5.19683 2.61731 5.67584 2.819C6.16326 3.01228 6.54562 3.29801 6.82295 3.67618C7.10027 4.04594 7.24733 4.49554 7.26414 5.02497L6.00359 5.35271C6.00359 5.06699 5.95316 4.81488 5.85232 4.59638C5.75988 4.37789 5.62542 4.19721 5.44894 4.05434C5.27246 3.91148 5.05817 3.80643 4.80606 3.7392C4.56235 3.66357 4.28923 3.62575 3.9867 3.62575C3.62534 3.62575 3.3102 3.68038 3.04128 3.78963C2.77236 3.89047 2.56227 4.03333 2.411 4.21822C2.25974 4.39469 2.1841 4.60479 2.1841 4.84849C2.1841 5.15103 2.29335 5.39053 2.51185 5.56701C2.73034 5.73508 3.01607 5.87374 3.36903 5.98299C3.72198 6.08384 4.10015 6.18048 4.50352 6.27292C4.86488 6.34855 5.22204 6.44099 5.575 6.55024C5.93636 6.65109 6.2641 6.78975 6.55823 6.96622C6.86076 7.1427 7.10027 7.3738 7.27675 7.65953C7.46163 7.94526 7.55407 8.31082 7.55407 8.75621C7.55407 9.24363 7.42381 9.66801 7.1633 10.0294C6.91118 10.3907 6.52882 10.6723 6.01619 10.8739C5.51197 11.0672 4.88169 11.1639 4.12536 11.1639ZM11.2803 11.1387C10.6332 11.1387 10.1542 10.9622 9.84325 10.6092C9.53232 10.2563 9.37685 9.71423 9.37685 8.98311V5.56701H8.39362L8.41883 4.44512H9.0491C9.276 4.44512 9.43988 4.4115 9.54072 4.34427C9.64997 4.26864 9.7172 4.13838 9.74241 3.9535L9.88107 2.98287H10.6878V4.44512H12.503V5.59222H10.6878V8.9453C10.6878 9.27304 10.7635 9.50834 10.9147 9.65121C11.066 9.79407 11.2887 9.8655 11.5828 9.8655C11.7425 9.8655 11.9022 9.84869 12.0618 9.81508C12.2299 9.77306 12.3896 9.69743 12.5408 9.58818V10.9118C12.2971 10.9958 12.066 11.0546 11.8475 11.0882C11.6374 11.1219 11.4484 11.1387 11.2803 11.1387ZM15.4257 11.1639C15.0644 11.1639 14.7408 11.0966 14.4551 10.9622C14.1694 10.8193 13.9425 10.6092 13.7744 10.3319C13.6147 10.0546 13.5349 9.71003 13.5349 9.29825C13.5349 8.97051 13.5937 8.68898 13.7114 8.45368C13.8374 8.20997 14.0223 8.00828 14.266 7.84861C14.5181 7.68054 14.8375 7.54608 15.2241 7.44524C15.6106 7.33599 16.0728 7.24355 16.6107 7.16791C16.9048 7.1259 17.1443 7.08388 17.3292 7.04186C17.5141 6.99984 17.6527 6.93261 17.7452 6.84017C17.8376 6.74773 17.8838 6.60907 17.8838 6.42419C17.8838 6.13846 17.783 5.89475 17.5813 5.69306C17.3796 5.48297 17.0603 5.37793 16.6233 5.37793C16.3796 5.37793 16.1401 5.41994 15.9047 5.50398C15.6694 5.58802 15.4636 5.72668 15.2871 5.91996C15.1106 6.10485 14.9929 6.35696 14.9341 6.6763L13.6988 6.27292C13.7828 5.96198 13.9047 5.68466 14.0643 5.44095C14.2324 5.18884 14.4425 4.97875 14.6946 4.81068C14.9467 4.6342 15.2367 4.50394 15.5644 4.4199C15.9005 4.32746 16.2661 4.28124 16.6611 4.28124C17.2493 4.28124 17.7326 4.37789 18.1107 4.57117C18.4889 4.76446 18.7704 5.06279 18.9553 5.46616C19.1402 5.86114 19.2326 6.36956 19.2326 6.99144V8.32762C19.2326 8.60495 19.2368 8.89908 19.2452 9.21001C19.262 9.51255 19.283 9.81928 19.3082 10.1302C19.3335 10.4328 19.3587 10.7227 19.3839 11H18.1485C18.1149 10.7479 18.0855 10.4916 18.0603 10.2311C18.0435 9.96214 18.0267 9.68902 18.0099 9.4117H17.8208C17.7031 9.72264 17.5351 10.0126 17.3166 10.2815C17.1065 10.5504 16.8418 10.7647 16.5224 10.9244C16.2115 11.084 15.8459 11.1639 15.4257 11.1639ZM15.9174 10.105C16.0854 10.105 16.2577 10.0756 16.4342 10.0168C16.6191 9.95794 16.7997 9.8697 16.9762 9.75205C17.1611 9.626 17.3292 9.47053 17.4804 9.28565C17.6401 9.09236 17.783 8.86126 17.909 8.59234L17.8964 7.39481L18.2116 7.45784C18.0687 7.5839 17.888 7.68054 17.6695 7.74777C17.4594 7.815 17.2283 7.86962 16.9762 7.91164C16.7241 7.94526 16.472 7.98727 16.2199 8.0377C15.9762 8.07971 15.7493 8.14274 15.5392 8.22678C15.3375 8.30241 15.1736 8.41166 15.0476 8.55452C14.9299 8.69739 14.8711 8.89487 14.8711 9.14698C14.8711 9.45792 14.9677 9.69743 15.161 9.8655C15.3543 10.0252 15.6064 10.105 15.9174 10.105ZM23.399 13.2312C23.0545 13.2312 22.7099 13.1934 22.3654 13.1177C22.0292 13.0421 21.7183 12.9286 21.4326 12.7774C21.1469 12.6345 20.9115 12.4454 20.7267 12.2101L21.2813 11.1387C21.4998 11.416 21.7939 11.6303 22.1637 11.7815C22.5335 11.9328 22.9242 12.0084 23.336 12.0084C23.7982 12.0084 24.1848 11.9076 24.4957 11.7059C24.8067 11.5042 25.042 11.1975 25.2016 10.7857C25.3613 10.3739 25.4453 9.8571 25.4537 9.23522L25.5672 7.98727H25.3151C25.231 8.57553 25.0882 9.05034 24.8865 9.4117C24.6932 9.77306 24.4495 10.0336 24.1554 10.1932C23.8696 10.3529 23.5377 10.4328 23.1595 10.4328C22.6805 10.4328 22.2771 10.3151 21.9494 10.0798C21.6301 9.83609 21.3864 9.47893 21.2183 9.00832C21.0502 8.52931 20.9662 7.94526 20.9662 7.25615V4.44512H22.3402V6.95362C22.3402 7.75197 22.4452 8.33603 22.6553 8.70579C22.8738 9.07555 23.1974 9.26043 23.6259 9.26043C23.8528 9.26043 24.0587 9.20161 24.2436 9.08396C24.4369 8.9663 24.6008 8.79403 24.7352 8.56713C24.8697 8.33183 24.9747 8.0419 25.0504 7.69735C25.1344 7.35279 25.1848 6.95362 25.2016 6.49982V4.44512H26.5756V9.29825C26.5756 9.81928 26.5336 10.2899 26.4496 10.7101C26.3655 11.1303 26.2395 11.4958 26.0714 11.8068C25.9033 12.1261 25.6891 12.3908 25.4285 12.6009C25.1764 12.811 24.8823 12.9665 24.5461 13.0673C24.21 13.1766 23.8276 13.2312 23.399 13.2312ZM31.3503 11.1639C30.7788 11.1639 30.2872 11.0756 29.8754 10.8992C29.4721 10.7227 29.1401 10.479 28.8796 10.168C28.6191 9.8571 28.4258 9.49994 28.2997 9.09656C28.1737 8.69318 28.1107 8.26039 28.1107 7.79819C28.1107 7.30237 28.1779 6.84437 28.3123 6.42419C28.4468 5.9956 28.6443 5.62163 28.9048 5.30229C29.1737 4.97455 29.5057 4.72244 29.9006 4.54596C30.2956 4.36948 30.7536 4.28124 31.2747 4.28124C31.7873 4.28124 32.2327 4.36948 32.6108 4.54596C32.9974 4.71403 33.3125 4.95354 33.5563 5.26448C33.8 5.57541 33.9638 5.94518 34.0479 6.37376L32.7495 6.76454C32.7327 6.52083 32.6613 6.29393 32.5352 6.08384C32.4176 5.87374 32.2495 5.70987 32.031 5.59222C31.8125 5.46616 31.5478 5.40314 31.2368 5.40314C30.9427 5.40314 30.6864 5.46196 30.4679 5.57961C30.2494 5.68886 30.0687 5.85273 29.9259 6.07123C29.783 6.28132 29.6737 6.52923 29.5981 6.81496C29.5309 7.10068 29.4973 7.41582 29.4973 7.76037C29.4973 8.23098 29.5603 8.64276 29.6864 8.99572C29.8208 9.34027 30.0267 9.60919 30.304 9.80247C30.5813 9.98735 30.9343 10.0798 31.3629 10.0798C31.7074 10.0798 31.9932 10.0168 32.2201 9.89071C32.447 9.76466 32.6234 9.59658 32.7495 9.38649C32.884 9.16799 32.968 8.92008 33.0016 8.64276L34.237 8.92008C34.1781 9.27304 34.0731 9.58818 33.9218 9.8655C33.7706 10.1428 33.5731 10.3781 33.3294 10.5714C33.0857 10.7647 32.7957 10.9118 32.4596 11.0126C32.1318 11.1134 31.7621 11.1639 31.3503 11.1639ZM37.8142 13.2312C37.4696 13.2312 37.1251 13.1934 36.7805 13.1177C36.4444 13.0421 36.1334 12.9286 35.8477 12.7774C35.562 12.6345 35.3267 12.4454 35.1418 12.2101L35.6964 11.1387C35.9149 11.416 36.2091 11.6303 36.5788 11.7815C36.9486 11.9328 37.3394 12.0084 37.7511 12.0084C38.2133 12.0084 38.5999 11.9076 38.9109 11.7059C39.2218 11.5042 39.4571 11.1975 39.6168 10.7857C39.7764 10.3739 39.8605 9.8571 39.8689 9.23522L39.9823 7.98727H39.7302C39.6462 8.57553 39.5033 9.05034 39.3016 9.4117C39.1083 9.77306 38.8646 10.0336 38.5705 10.1932C38.2848 10.3529 37.9528 10.4328 37.5747 10.4328C37.0957 10.4328 36.6923 10.3151 36.3645 10.0798C36.0452 9.83609 35.8015 9.47893 35.6334 9.00832C35.4653 8.52931 35.3813 7.94526 35.3813 7.25615V4.44512H36.7553V6.95362C36.7553 7.75197 36.8604 8.33603 37.0704 8.70579C37.2889 9.07555 37.6125 9.26043 38.0411 9.26043C38.268 9.26043 38.4739 9.20161 38.6587 9.08396C38.852 8.9663 39.0159 8.79403 39.1504 8.56713C39.2848 8.33183 39.3899 8.0419 39.4655 7.69735C39.5495 7.35279 39.6 6.95362 39.6168 6.49982V4.44512H40.9908V9.29825C40.9908 9.81928 40.9488 10.2899 40.8647 10.7101C40.7807 11.1303 40.6546 11.4958 40.4865 11.8068C40.3185 12.1261 40.1042 12.3908 39.8437 12.6009C39.5916 12.811 39.2974 12.9665 38.9613 13.0673C38.6251 13.1766 38.2428 13.2312 37.8142 13.2312Z" fill="white"/>
</svg>
